<svg width="32" height="32" viewBox="0 0 32 32" fill="none" xmlns="http://www.w3.org/2000/svg">
    <path d="M22.381 14.4897L13.2502 20.1153C13.0457 20.2406 12.7838 20.2286 12.5924 20.0806C11.7249 19.4126 10.9499 18.7352 10.4328 18.1658C10.4328 18.1658 9.98729 17.7098 9.79451 17.4205C9.48321 17.0258 9.33342 16.5098 9.33342 16.0084C9.33342 15.4457 9.49754 14.9137 9.82447 14.4883C9.89872 14.4123 10.1814 14.0776 10.4484 13.8043C12.0062 12.1029 16.0728 9.29206 18.2115 8.44002C18.5228 8.30268 19.3539 8.016 19.785 8C20.2005 8 20.6017 8.09067 20.9872 8.28935C21.4614 8.56269 21.8326 8.98672 22.041 9.48941C22.1752 9.83876 22.3823 10.8868 22.3823 10.9175C22.5164 11.6655 22.6167 12.7162 22.6662 13.943C22.6753 14.163 22.5646 14.3763 22.381 14.4897" fill="#FF5035"/>
    <path opacity="0.4" d="M21.7705 17.5196C22.1729 17.2703 22.6796 17.589 22.6601 18.0677C22.6119 19.1904 22.5285 20.1798 22.4269 20.9158C22.4113 20.9318 22.2042 22.2372 21.9658 22.6786C21.5503 23.4986 20.7349 24 19.8583 24H19.7854C19.2201 23.9853 18.0178 23.4839 18.0178 23.4533C17.4122 23.2012 16.6215 22.7746 15.771 22.2612C15.388 22.0292 15.3789 21.4598 15.7618 21.2238L21.7705 17.5196Z" fill="#FF5035"/>
</svg>
