<svg width="18" height="18" viewBox="0 0 18 18" fill="none" xmlns="http://www.w3.org/2000/svg">
    <path d="M8.10767 1.19855H6.52819C2.57948 1.19855 1 2.77869 1 6.72904V11.4695C1 15.4198 2.57948 16.9999 6.52819 16.9999H11.2666C15.2153 16.9999 16.7948 15.4198 16.7948 11.4695V9.88932" stroke="#4318FF" stroke-linecap="round" stroke-linejoin="round"/>
    <path d="M12.0879 2.00436L5.86475 8.23011C5.62782 8.46713 5.3909 8.93327 5.34352 9.273L5.00393 11.6511C4.87757 12.5123 5.48567 13.1127 6.34649 12.9942L8.72361 12.6545C9.0553 12.6071 9.52125 12.3701 9.76607 12.1331L15.9892 5.90731C17.0633 4.83281 17.5687 3.5845 15.9892 2.00436C14.4097 0.42422 13.162 0.929865 12.0879 2.00436Z" stroke="#4318FF" stroke-miterlimit="10" stroke-linecap="round" stroke-linejoin="round"/>
    <path d="M11.1953 2.89722C11.7244 4.78505 13.2013 6.26215 15.0966 6.79927" stroke="#4318FF" stroke-miterlimit="10" stroke-linecap="round" stroke-linejoin="round"/>
</svg>
