<svg width="43" height="58" viewBox="0 0 43 58" fill="none" xmlns="http://www.w3.org/2000/svg">
    <path d="M34.6953 25.4771C36.8638 22.701 38.0836 19.298 38.0836 15.7608C38.0384 7.34303 31.3975 0.447703 22.9494 0H22.4526V8.64159L22.8592 8.68648C26.5185 9.04453 29.3193 12.0894 29.3193 15.7609C29.3193 19.4324 26.5636 22.4772 22.8592 22.8355L22.4526 22.8802V31.5217H23.6723C25.2084 31.5217 27.422 31.7905 28.8224 32.4173C31.9396 33.8053 34.1984 36.5367 34.1984 40.1186C34.1984 44.8647 30.1778 48.7155 25.389 48.7155H12.333V57.357H25.5246C35.1472 57.357 42.9627 49.6109 42.9627 40.0739C42.9175 34.1636 39.8003 28.6113 34.6953 25.4771Z" fill="#4318FF"/>
    <path d="M18.9741 22.8808H8.71909V8.64225H18.9741V0.000732422H0V57.4025H8.71909V31.5224H18.9741V22.8808Z" fill="#FF5035"/>
</svg>
