<svg width="16" height="16" viewBox="0 0 16 16" fill="none" xmlns="http://www.w3.org/2000/svg">
    <path d="M8.80607 8C8.80607 7.80109 8.72902 7.61032 8.59189 7.46967C8.45475 7.32902 8.26876 7.25 8.07482 7.25C7.88088 7.25 7.69488 7.32902 7.55774 7.46967C7.42061 7.61032 7.34357 7.80109 7.34357 8C7.34357 8.19891 7.42061 8.38968 7.55774 8.53033C7.69488 8.67098 7.88088 8.75 8.07482 8.75C8.26876 8.75 8.45475 8.67098 8.59189 8.53033C8.72902 8.38968 8.80607 8.19891 8.80607 8ZM5.75919 8C5.75919 7.80109 5.68215 7.61032 5.54501 7.46967C5.40788 7.32902 5.22188 7.25 5.02794 7.25C4.834 7.25 4.64801 7.32902 4.51087 7.46967C4.37373 7.61032 4.29669 7.80109 4.29669 8C4.29669 8.19891 4.37373 8.38968 4.51087 8.53033C4.64801 8.67098 4.834 8.75 5.02794 8.75C5.22188 8.75 5.40788 8.67098 5.54501 8.53033C5.68215 8.38968 5.75919 8.19891 5.75919 8ZM11.8529 8C11.8529 7.80109 11.7759 7.61032 11.6388 7.46967C11.5016 7.32902 11.3156 7.25 11.1217 7.25C10.9278 7.25 10.7418 7.32902 10.6046 7.46967C10.4675 7.61032 10.3904 7.80109 10.3904 8C10.3904 8.19891 10.4675 8.38968 10.6046 8.53033C10.7418 8.67098 10.9278 8.75 11.1217 8.75C11.3156 8.75 11.5016 8.67098 11.6388 8.53033C11.7759 8.38968 11.8529 8.19891 11.8529 8ZM1.77997 10.7125C2.12427 11.5516 2.61786 12.3047 3.24704 12.9516C3.87182 13.5947 4.61351 14.1059 5.43013 14.4562C6.26802 14.8172 7.15771 15 8.07482 15H8.10528C9.02849 14.9953 9.92275 14.8078 10.7637 14.4391C11.5733 14.0851 12.308 13.573 12.927 12.9313C13.5501 12.2859 14.0391 11.5359 14.3773 10.7C14.7277 9.83437 14.9044 8.91406 14.8998 7.96719C14.8946 6.88208 14.6443 5.81296 14.1686 4.84375V2.46875C14.1686 2.27813 14.0947 2.09531 13.9633 1.96052C13.8319 1.82573 13.6536 1.75 13.4678 1.75H11.1506C10.2057 1.26202 9.16327 1.0053 8.10528 1H8.07329C7.16075 1 6.27564 1.18125 5.44232 1.53594C4.62983 1.88211 3.8909 2.38736 3.26685 3.02344C2.63767 3.6625 2.14255 4.40938 1.79673 5.24219C1.4372 6.10469 1.25439 7.02187 1.24982 7.96875C1.24524 8.92031 1.42501 9.84375 1.77997 10.7125ZM4.08189 3.86875C5.14982 2.78437 6.56661 2.1875 8.07482 2.1875H8.10071C9.01935 2.19219 9.93189 2.42656 10.7378 2.86719L10.8658 2.9375H13.0108V5.1375L13.0793 5.26875C13.5089 6.09531 13.7374 7.03125 13.742 7.97344C13.7481 9.53125 13.1677 10.9938 12.1028 12.0953C11.0394 13.1969 9.61806 13.8062 8.09919 13.8125H8.07329C7.31157 13.8125 6.57271 13.6609 5.8765 13.3609C5.19704 13.0688 4.58767 12.6484 4.06361 12.1109C3.54107 11.575 3.12974 10.9484 2.84485 10.2516C2.54931 9.52969 2.40153 8.76406 2.40458 7.97344C2.41372 6.41719 3.00939 4.95937 4.08189 3.86875Z" fill="#192A3E"/>
</svg>