<svg width="17" height="17" viewBox="0 0 17 17" fill="none" xmlns="http://www.w3.org/2000/svg">
    <path d="M4.0322 14.6092C4.066 14.9255 4.2179 15.2152 4.4537 15.4317C4.6889 15.6476 4.9937 15.7785 5.3148 15.8085L5.3236 15.8093L5.3324 15.8097L5.4422 15.8145L5.4497 15.8148H5.4573H11.8322C12.4963 15.8148 13.0949 15.3827 13.2347 14.747L13.2364 14.7393L13.2377 14.7316L13.255 14.632L13.257 14.6208L13.2582 14.6094L14.351 4.43898L14.0022 4.40151V4.04975H13.6854H3.2865H2.895L2.9369 4.43907L4.0322 14.6092ZM4.0322 14.6092L4.3819 14.5719ZM4.0322 14.6092L4.3819 14.5719ZM4.3819 14.5719L3.3244 4.75308ZM4.3819 14.5719C4.4061 14.7988 4.5155 15.0111 4.6916 15.1727C4.8676 15.3342 5.0993 15.4352 5.3475 15.4584L5.4573 15.4631H11.8322C12.3509 15.4631 12.791 15.1273 12.8913 14.6714L12.9086 14.5719L13.9635 4.75308H14.0013H3.3244M3.3244 4.75308H3.2865V4.40142L3.6362 4.36376L3.6402 4.40142H13.6476L3.3244 4.75308ZM10.2019 13.2887L10.18 12.9377C10.2639 12.9325 10.3367 12.8985 10.3855 12.8507C10.4334 12.8038 10.4543 12.7486 10.4544 12.6977L10.2019 13.2887ZM10.2019 13.2887L10.18 12.9377C10.0959 12.943 10.0166 12.9183 9.9583 12.875C9.9044 12.8349 9.8747 12.7841 9.8648 12.7355L9.861 12.6845V7.16685C9.861 7.11368 9.8838 7.05554 9.9364 7.00741C9.9902 6.95831 10.0693 6.92592 10.1577 6.92592C10.2379 6.92593 10.3113 6.95273 10.3646 6.99524M10.2019 13.2887L10.3646 6.99524ZM7.1761 13.2887L7.1542 12.9377C7.2381 12.9325 7.3109 12.8985 7.3597 12.8507C7.4077 12.8038 7.4286 12.7486 7.4286 12.6977L7.1761 13.2887ZM7.1761 13.2887L7.1542 12.9377C7.0701 12.943 6.9908 12.9183 6.9325 12.875C6.8786 12.8349 6.8489 12.7841 6.839 12.7355M7.1761 13.2887L6.839 12.7355ZM10.3646 6.99524C10.4139 7.03449 10.4412 7.08268 10.4506 7.12892ZM10.3646 6.99524L10.4506 7.12892ZM10.4506 7.12892L10.4544 7.18004V12.6977L10.4506 7.12892ZM7.3388 6.99524C7.2855 6.95274 7.2122 6.92593 7.1319 6.92592L7.3388 6.99524ZM7.3388 6.99524C7.3881 7.03449 7.4154 7.08268 7.4248 7.12892ZM7.3388 6.99524L7.4248 7.12892ZM7.4248 7.12892L7.4286 7.18003V12.6977L7.4248 7.12892ZM6.839 12.7355L6.8352 12.6845V7.16685C6.8352 7.11368 6.858 7.05554 6.9107 7.00741C6.9644 6.95831 7.0435 6.92593 7.1319 6.92592L6.839 12.7355ZM8.6448 1C9.2819 0.99996 9.8898 1.22299 10.3447 1.61586C10.7973 2.00669 11.0629 2.53395 11.0988 3.08719L11.1029 3.22668L11.1131 3.5679H11.4544H15.993C16.0773 3.56794 16.1536 3.59747 16.2072 3.64325C16.26 3.68831 16.2853 3.74352 16.2891 3.79465C16.2929 3.84544 16.2763 3.90064 16.2332 3.94898C16.1909 3.99654 16.1255 4.03372 16.0465 4.04571L15.9821 4.04975H15.305H14.9891L14.9553 4.36381L13.8488 14.651C13.8488 14.6509 13.8488 14.6511 13.8488 14.651C13.8032 15.072 13.5948 15.4712 13.2516 15.7743C12.9087 16.077 12.4545 16.2628 11.9685 16.2922L11.8268 16.2966H5.4573C4.9683 16.2966 4.4991 16.1374 4.1334 15.8533C3.7698 15.5709 3.534 15.1854 3.4582 14.7691L3.4401 14.644L2.3334 4.36377L2.2995 4.04975H1.9837H1.2964C1.2161 4.04974 1.1428 4.02294 1.0895 3.98043C1.0402 3.94118 1.0129 3.89299 1.0035 3.84675L1 3.79905C1.0024 3.75317 1.0216 3.70462 1.0622 3.66213C1.1047 3.61756 1.1679 3.58332 1.243 3.57194L1.3074 3.5679H5.8351H6.1868V3.21623C6.1868 2.63918 6.4373 2.07861 6.8953 1.66003C7.3543 1.24049 7.9832 1 8.6448 1ZM8.6448 1.48185C8.1858 1.48186 7.7389 1.63933 7.3935 1.93003C7.0473 2.22142 6.8269 2.62748 6.7868 3.07081L6.7861 3.07861L6.7858 3.08644L6.7806 3.20022L6.7638 3.5679H7.1319H10.1577H10.5093V3.21623C10.5093 2.74551 10.3045 2.30123 9.9518 1.97892C9.6002 1.65758 9.1296 1.48185 8.6448 1.48185Z" fill=""/>
    <path d="M4.0322 14.6092C4.066 14.9255 4.2179 15.2152 4.4537 15.4317C4.6889 15.6476 4.9937 15.7785 5.3148 15.8085L5.3236 15.8093L5.3324 15.8097L5.4422 15.8145L5.4497 15.8148H5.4573H11.8322C12.4963 15.8148 13.0949 15.3827 13.2347 14.747L13.2364 14.7393L13.2377 14.7316L13.255 14.632L13.257 14.6208L13.2582 14.6094L14.351 4.43898L14.0022 4.40151V4.04975H13.6854H3.2865H2.895L2.9369 4.43907L4.0322 14.6092ZM4.0322 14.6092L4.3819 14.5719M4.3819 14.5719L3.3244 4.75308M4.3819 14.5719C4.4061 14.7988 4.5155 15.0111 4.6916 15.1727C4.8676 15.3342 5.0993 15.4352 5.3475 15.4584L5.4573 15.4631H11.8322C12.3509 15.4631 12.791 15.1273 12.8913 14.6714L12.9086 14.5719L13.9635 4.75308H14.0013H3.3244M3.3244 4.75308H3.2865V4.40142L3.6362 4.36376L3.6402 4.40142H13.6476L3.3244 4.75308ZM10.2019 13.2887L10.18 12.9377M10.2019 13.2887L10.4544 12.6977M10.2019 13.2887L10.3646 6.99524M10.18 12.9377C10.2639 12.9325 10.3367 12.8985 10.3855 12.8507C10.4334 12.8038 10.4543 12.7486 10.4544 12.6977M10.18 12.9377C10.0959 12.943 10.0166 12.9183 9.9583 12.875C9.9044 12.8349 9.8747 12.7841 9.8648 12.7355L9.861 12.6845V7.16685C9.861 7.11368 9.8838 7.05554 9.9364 7.00741C9.9902 6.95831 10.0693 6.92592 10.1577 6.92592C10.2379 6.92593 10.3113 6.95273 10.3646 6.99524M10.4544 12.6977V7.18004L10.4506 7.12892M10.4544 12.6977L10.4506 7.12892M10.3646 6.99524C10.4139 7.03449 10.4412 7.08268 10.4506 7.12892M10.3646 6.99524L10.4506 7.12892M7.1761 13.2887L7.1542 12.9377M7.1761 13.2887L7.4286 12.6977M7.1761 13.2887L6.839 12.7355M7.1542 12.9377C7.2381 12.9325 7.3109 12.8985 7.3597 12.8507C7.4077 12.8038 7.4286 12.7486 7.4286 12.6977M7.1542 12.9377C7.0701 12.943 6.9908 12.9183 6.9325 12.875C6.8786 12.8349 6.8489 12.7841 6.839 12.7355M7.4286 12.6977V7.18003L7.4248 7.12892M7.4286 12.6977L7.4248 7.12892M6.839 12.7355L6.8352 12.6845V7.16685C6.8352 7.11368 6.858 7.05554 6.9107 7.00741C6.9644 6.95831 7.0435 6.92593 7.1319 6.92592M6.839 12.7355L7.1319 6.92592M7.3388 6.99524C7.2855 6.95274 7.2122 6.92593 7.1319 6.92592M7.3388 6.99524L7.1319 6.92592M7.3388 6.99524C7.3881 7.03449 7.4154 7.08268 7.4248 7.12892M7.3388 6.99524L7.4248 7.12892M16.2332 3.94898C16.2763 3.90064 16.2929 3.84544 16.2891 3.79465C16.2853 3.74352 16.26 3.68831 16.2072 3.64325C16.1536 3.59747 16.0773 3.56794 15.993 3.5679H11.4544H11.1131L11.1029 3.22668L11.0988 3.08719C11.0629 2.53395 10.7973 2.00669 10.3447 1.61586C9.8898 1.22299 9.2819 0.99996 8.6448 1C7.9832 1 7.3543 1.24049 6.8953 1.66003C6.4373 2.07861 6.1868 2.63918 6.1868 3.21623V3.5679H5.8351H1.3074L1.243 3.57194C1.1679 3.58332 1.1047 3.61756 1.0622 3.66213C1.0216 3.70462 1.0024 3.75317 1 3.79905L1.0035 3.84675C1.0129 3.89299 1.0402 3.94118 1.0895 3.98043C1.1428 4.02294 1.2161 4.04974 1.2964 4.04975H1.9837H2.2995L2.3334 4.36377L3.4401 14.644L3.4582 14.7691C3.534 15.1854 3.7698 15.5709 4.1334 15.8533C4.4991 16.1374 4.9683 16.2966 5.4573 16.2966H11.8268L11.9685 16.2922C12.4545 16.2628 12.9087 16.077 13.2516 15.7743C13.5948 15.4712 13.8032 15.072 13.8488 14.651M16.2332 3.94898L16.4959 4.18279M16.2332 3.94898C16.1909 3.99654 16.1255 4.03372 16.0465 4.04571L15.9821 4.04975H15.305H14.9891L14.9553 4.36381L13.8488 14.651M13.8488 14.651C13.8488 14.6511 13.8488 14.6509 13.8488 14.651ZM8.6448 1.48185C8.1858 1.48186 7.7389 1.63933 7.3935 1.93003C7.0473 2.22142 6.8269 2.62748 6.7868 3.07081L6.7861 3.07861L6.7858 3.08644L6.7806 3.20022L6.7638 3.5679H7.1319H10.1577H10.5093V3.21623C10.5093 2.74551 10.3045 2.30123 9.9518 1.97892C9.6002 1.65758 9.1296 1.48185 8.6448 1.48185Z" stroke="#4318FF" stroke-width="0.703333"/>
</svg>
